<svg width="855" height="650" viewBox="0 0 855 650" fill="none" xmlns="http://www.w3.org/2000/svg">
<g clip-path="url(#clip0)">
<path d="M600.975 500.308C525.472 500.308 457.243 447.929 440.281 371.229C424.578 300.224 469.569 229.682 540.574 213.979C554.128 210.981 568.14 210.683 581.81 213.1C595.479 215.518 608.539 220.604 620.242 228.069C631.946 235.533 642.065 245.23 650.021 256.605C657.977 267.981 663.615 280.812 666.613 294.366C671.441 316.314 667.365 339.282 655.281 358.229C643.196 377.177 624.089 390.557 602.152 395.435C586.995 398.725 571.171 396.764 557.276 389.873C543.382 382.982 532.244 371.571 525.691 357.514C525.635 357.394 525.603 357.265 525.598 357.133C525.592 357.002 525.613 356.87 525.658 356.747C525.704 356.623 525.773 356.51 525.862 356.413C525.952 356.316 526.059 356.238 526.179 356.183C526.299 356.128 526.428 356.097 526.56 356.092C526.691 356.087 526.823 356.108 526.946 356.154C527.07 356.2 527.183 356.27 527.279 356.36C527.375 356.45 527.453 356.558 527.508 356.678C533.867 370.322 544.678 381.397 558.164 388.085C571.65 394.773 587.009 396.676 601.72 393.482C623.14 388.719 641.796 375.655 653.595 357.154C665.395 338.654 669.374 316.228 664.66 294.797C658.721 267.942 642.356 244.545 619.167 229.755C595.977 214.965 567.862 209.993 541.006 215.932C507.392 223.406 478.115 243.908 459.598 272.941C441.081 301.974 434.836 337.166 442.234 370.797C461.595 458.341 548.566 513.814 636.114 494.453C665.038 488.076 692.218 475.454 715.752 457.471C739.286 439.488 758.605 416.578 772.357 390.346C772.418 390.229 772.501 390.126 772.602 390.041C772.703 389.957 772.819 389.893 772.945 389.854C773.07 389.815 773.203 389.801 773.334 389.813C773.465 389.825 773.592 389.862 773.708 389.923C773.825 389.985 773.928 390.068 774.012 390.169C774.096 390.271 774.16 390.387 774.198 390.513C774.237 390.639 774.251 390.771 774.239 390.902C774.227 391.033 774.189 391.16 774.127 391.276C760.241 417.767 740.732 440.902 716.966 459.061C693.201 477.221 665.754 489.967 636.546 496.406C624.866 498.995 612.938 500.303 600.975 500.308V500.308Z" fill="#E6E6E6"/>
<path d="M795.552 275.189C795.305 275.189 795.067 275.097 794.884 274.932C794.701 274.767 794.585 274.541 794.559 274.295C793.745 266.736 792.515 259.228 790.873 251.805C764.756 133.711 658.173 49.6983 537.442 52.1538C537.176 52.1591 536.92 52.0588 536.729 51.875C536.538 51.6912 536.427 51.439 536.422 51.1738C536.417 50.9087 536.517 50.6522 536.701 50.4609C536.884 50.2696 537.136 50.1592 537.402 50.1538C596.661 49.0534 654.475 68.4913 701.033 105.169C747.59 141.846 780.023 193.503 792.826 251.373C794.483 258.869 795.726 266.45 796.547 274.083C796.561 274.213 796.55 274.345 796.512 274.471C796.475 274.597 796.414 274.714 796.332 274.817C796.249 274.919 796.147 275.004 796.032 275.067C795.917 275.13 795.79 275.169 795.66 275.183C795.624 275.187 795.588 275.189 795.552 275.189Z" fill="#E6E6E6"/>
<path d="M244.048 439.189C243.821 439.189 243.6 439.111 243.423 438.968C243.246 438.826 243.122 438.627 243.073 438.405C230.487 381.689 233.565 322.618 251.977 267.517C270.389 212.417 303.442 163.362 347.596 125.606C347.696 125.52 347.811 125.454 347.936 125.412C348.062 125.371 348.194 125.354 348.325 125.364C348.457 125.374 348.585 125.409 348.703 125.469C348.82 125.528 348.925 125.61 349.011 125.71C349.097 125.811 349.162 125.927 349.203 126.052C349.243 126.177 349.259 126.31 349.248 126.441C349.238 126.572 349.202 126.7 349.141 126.818C349.081 126.935 348.998 127.039 348.898 127.125C305.019 164.645 272.172 213.394 253.874 268.151C235.577 322.908 232.518 381.611 245.026 437.973C245.058 438.119 245.057 438.271 245.023 438.417C244.989 438.563 244.923 438.699 244.829 438.816C244.735 438.933 244.616 439.027 244.481 439.091C244.346 439.156 244.198 439.189 244.048 439.189Z" fill="#E6E6E6"/>
<path d="M520.422 161H364.422C359.914 160.995 355.593 159.202 352.406 156.015C349.219 152.828 347.427 148.507 347.422 144V17C347.427 12.4929 349.219 8.1718 352.406 4.98478C355.593 1.79776 359.914 0.00507387 364.422 0H520.422C524.929 0.00507387 529.25 1.79776 532.437 4.98478C535.624 8.1718 537.416 12.4929 537.422 17V144C537.416 148.507 535.624 152.828 532.437 156.015C529.25 159.202 524.929 160.995 520.422 161V161ZM364.422 2C360.445 2.0045 356.632 3.5863 353.82 6.39837C351.008 9.21044 349.426 13.0231 349.422 17V144C349.426 147.977 351.008 151.79 353.82 154.602C356.632 157.414 360.445 158.996 364.422 159H520.422C524.398 158.996 528.211 157.414 531.023 154.602C533.835 151.79 535.417 147.977 535.422 144V17C535.417 13.0231 533.835 9.21044 531.023 6.39837C528.211 3.5863 524.398 2.0045 520.422 2H364.422Z" fill="#3F3D56"/>
<path d="M502.69 38.138H423.959C423.267 38.1521 422.595 37.9029 422.08 37.4408C421.565 36.9788 421.244 36.3383 421.183 35.649C421.164 35.2921 421.218 34.9351 421.341 34.5997C421.464 34.2643 421.655 33.9576 421.901 33.6982C422.146 33.4388 422.442 33.2322 422.771 33.091C423.099 32.9499 423.453 32.877 423.81 32.877H503.954C506.594 35.197 504.985 38.138 502.689 38.138L502.69 38.138Z" fill="#CCCCCC"/>
<path d="M502.69 51.948H423.959C423.267 51.962 422.595 51.7128 422.08 51.2508C421.565 50.7887 421.244 50.1483 421.183 49.4589C421.164 49.1021 421.218 48.7451 421.341 48.4097C421.464 48.0743 421.655 47.7676 421.901 47.5082C422.146 47.2488 422.442 47.0422 422.771 46.901C423.099 46.7598 423.453 46.687 423.81 46.687H503.954C506.594 49.007 504.985 51.948 502.689 51.948H502.69Z" fill="#CCCCCC"/>
<path d="M406.939 59.811H382.911C382.126 59.8102 381.374 59.4982 380.82 58.9435C380.265 58.3887 379.953 57.6365 379.952 56.852V28.497C379.953 27.7125 380.265 26.9603 380.82 26.4055C381.374 25.8508 382.126 25.5388 382.911 25.538H406.939C407.723 25.5391 408.475 25.8511 409.03 26.4058C409.585 26.9605 409.897 27.7125 409.898 28.497V56.852C409.897 57.6365 409.585 58.3887 409.03 58.9435C408.476 59.4982 407.724 59.8102 406.939 59.811V59.811Z" fill="#00BFA6"/>
<path d="M502.461 80.224H382.303C381.611 80.238 380.94 79.9889 380.424 79.5268C379.909 79.0648 379.588 78.4243 379.527 77.7349C379.508 77.3781 379.562 77.0211 379.685 76.6857C379.809 76.3503 379.999 76.0436 380.245 75.7842C380.491 75.5248 380.787 75.3182 381.115 75.177C381.443 75.0358 381.797 74.963 382.154 74.963H503.726C506.366 77.283 504.757 80.224 502.461 80.224V80.224Z" fill="#CCCCCC"/>
<path d="M502.461 94.038H382.303C381.611 94.052 380.939 93.8029 380.424 93.3408C379.909 92.8788 379.588 92.2383 379.527 91.549C379.508 91.1921 379.562 90.8351 379.685 90.4997C379.808 90.1643 379.999 89.8576 380.245 89.5982C380.49 89.3388 380.786 89.1322 381.115 88.991C381.443 88.8498 381.797 88.777 382.154 88.777H503.725C506.366 91.097 504.757 94.038 502.461 94.038V94.038Z" fill="#CCCCCC"/>
<path d="M502.461 107.843H382.303C381.611 107.857 380.94 107.608 380.424 107.146C379.909 106.684 379.588 106.043 379.527 105.354C379.508 104.997 379.562 104.64 379.685 104.305C379.809 103.969 379.999 103.663 380.245 103.403C380.491 103.144 380.787 102.937 381.115 102.796C381.443 102.655 381.797 102.582 382.154 102.582H503.726C506.366 104.902 504.757 107.843 502.461 107.843V107.843Z" fill="#CCCCCC"/>
<path d="M502.461 121.656H382.303C381.611 121.67 380.94 121.421 380.424 120.959C379.909 120.497 379.589 119.856 379.527 119.167C379.508 118.81 379.562 118.453 379.685 118.118C379.809 117.782 379.999 117.476 380.245 117.216C380.491 116.957 380.787 116.75 381.115 116.609C381.443 116.468 381.797 116.395 382.154 116.395H503.726C506.366 118.715 504.757 121.656 502.461 121.656V121.656Z" fill="#CCCCCC"/>
<path d="M502.461 135.462H382.303C381.611 135.476 380.94 135.227 380.424 134.765C379.909 134.303 379.589 133.662 379.527 132.973C379.508 132.616 379.562 132.259 379.685 131.924C379.809 131.588 379.999 131.282 380.245 131.022C380.491 130.763 380.787 130.556 381.115 130.415C381.443 130.274 381.797 130.201 382.154 130.201H503.726C506.366 132.521 504.757 135.462 502.461 135.462V135.462Z" fill="#CCCCCC"/>
<path d="M840.922 391.811H727.921C724.392 391.807 721.007 390.403 718.511 387.907C716.015 385.411 714.611 382.027 714.607 378.497V286.503C714.611 282.973 716.015 279.589 718.511 277.093C721.007 274.597 724.392 273.193 727.921 273.189H840.922C844.452 273.193 847.836 274.597 850.332 277.093C852.828 279.589 854.232 282.973 854.236 286.503V378.497C854.232 382.027 852.828 385.411 850.332 387.907C847.836 390.403 844.452 391.807 840.922 391.811V391.811ZM727.921 275.189C724.922 275.192 722.046 276.385 719.925 278.506C717.804 280.628 716.611 283.503 716.607 286.503V378.497C716.611 381.497 717.804 384.373 719.925 386.494C722.046 388.615 724.922 389.808 727.921 389.811H840.922C843.921 389.808 846.797 388.615 848.918 386.494C851.039 384.373 852.233 381.497 852.236 378.497V286.503C852.233 283.503 851.039 280.627 848.918 278.506C846.797 276.385 843.921 275.192 840.922 275.189L727.921 275.189Z" fill="#3F3D56"/>
<path d="M828.078 301.815H771.048C770.547 301.825 770.06 301.644 769.687 301.31C769.314 300.975 769.082 300.511 769.037 300.012C769.024 299.753 769.062 299.495 769.152 299.252C769.241 299.009 769.379 298.786 769.557 298.599C769.735 298.411 769.95 298.261 770.187 298.159C770.425 298.057 770.681 298.004 770.94 298.004H828.993C830.905 299.684 829.74 301.815 828.077 301.815L828.078 301.815Z" fill="#CCCCCC"/>
<path d="M828.078 311.818H771.048C770.547 311.828 770.06 311.648 769.687 311.313C769.314 310.978 769.082 310.514 769.037 310.015C769.024 309.757 769.062 309.498 769.152 309.255C769.241 309.012 769.379 308.79 769.557 308.602C769.735 308.414 769.95 308.264 770.187 308.162C770.425 308.06 770.681 308.007 770.94 308.007H828.993C830.905 309.688 829.74 311.818 828.077 311.818L828.078 311.818Z" fill="#CCCCCC"/>
<path d="M758.719 317.514H741.315C740.746 317.513 740.201 317.287 739.8 316.885C739.398 316.483 739.172 315.939 739.171 315.37V294.831C739.172 294.263 739.398 293.718 739.8 293.316C740.201 292.914 740.746 292.688 741.315 292.688H758.719C759.288 292.688 759.832 292.915 760.234 293.316C760.636 293.718 760.862 294.263 760.863 294.831V315.37C760.862 315.939 760.636 316.483 760.234 316.885C759.833 317.287 759.288 317.513 758.719 317.514V317.514Z" fill="#00BFA6"/>
<path d="M827.912 332.3H740.874C740.373 332.31 739.886 332.13 739.513 331.795C739.14 331.46 738.908 330.996 738.863 330.497C738.849 330.239 738.888 329.98 738.978 329.737C739.067 329.494 739.205 329.272 739.383 329.084C739.561 328.896 739.776 328.746 740.013 328.644C740.251 328.542 740.507 328.489 740.766 328.489H828.828C830.74 330.17 829.575 332.3 827.912 332.3V332.3Z" fill="#CCCCCC"/>
<path d="M827.912 342.306H740.874C740.373 342.317 739.886 342.136 739.513 341.801C739.14 341.467 738.908 341.003 738.863 340.503C738.849 340.245 738.888 339.986 738.978 339.743C739.067 339.5 739.205 339.278 739.383 339.09C739.561 338.902 739.776 338.753 740.013 338.651C740.251 338.548 740.507 338.496 740.766 338.496H828.828C830.74 340.176 829.575 342.306 827.912 342.306V342.306Z" fill="#CCCCCC"/>
<path d="M827.912 352.306H740.874C740.373 352.316 739.886 352.136 739.513 351.801C739.14 351.466 738.908 351.003 738.863 350.503C738.849 350.245 738.888 349.986 738.978 349.743C739.067 349.5 739.205 349.278 739.383 349.09C739.561 348.902 739.776 348.753 740.013 348.65C740.251 348.548 740.507 348.495 740.766 348.495H828.828C830.74 350.176 829.575 352.306 827.912 352.306V352.306Z" fill="#CCCCCC"/>
<path d="M827.912 362.312H740.874C740.373 362.322 739.886 362.141 739.513 361.807C739.14 361.472 738.908 361.008 738.863 360.509C738.849 360.25 738.888 359.992 738.978 359.749C739.067 359.506 739.205 359.284 739.383 359.096C739.561 358.908 739.776 358.758 740.013 358.656C740.251 358.554 740.507 358.501 740.766 358.501H828.828C830.74 360.181 829.575 362.312 827.912 362.312V362.312Z" fill="#CCCCCC"/>
<path d="M827.912 372.312H740.874C740.373 372.322 739.886 372.142 739.513 371.807C739.14 371.473 738.908 371.009 738.863 370.509C738.849 370.251 738.888 369.992 738.978 369.749C739.067 369.506 739.205 369.284 739.383 369.096C739.561 368.908 739.776 368.759 740.013 368.656C740.251 368.554 740.507 368.501 740.766 368.501H828.828C830.74 370.182 829.575 372.312 827.912 372.312V372.312Z" fill="#CCCCCC"/>
<path d="M563.242 358.469H491.601C489.266 358.466 487.027 357.537 485.376 355.886C483.725 354.235 482.796 351.997 482.794 349.662V291.338C482.796 289.003 483.725 286.765 485.376 285.114C487.027 283.463 489.266 282.534 491.601 282.531H563.242C565.577 282.534 567.816 283.463 569.467 285.114C571.118 286.765 572.047 289.003 572.049 291.338V349.662C572.047 351.997 571.118 354.235 569.467 355.886C567.816 357.537 565.577 358.466 563.242 358.469V358.469ZM491.601 284.531C489.796 284.533 488.066 285.251 486.79 286.527C485.514 287.803 484.796 289.534 484.794 291.338V349.662C484.796 351.466 485.514 353.197 486.79 354.473C488.066 355.749 489.796 356.467 491.601 356.469H563.242C565.047 356.467 566.777 355.749 568.053 354.473C569.33 353.197 570.047 351.466 570.049 349.662V291.338C570.047 289.534 569.33 287.803 568.053 286.527C566.777 285.251 565.047 284.533 563.242 284.531H491.601Z" fill="#3F3D56"/>
<path d="M551.922 326.75H502.922C501.728 326.75 500.583 326.276 499.74 325.432C498.896 324.588 498.422 323.443 498.422 322.25C498.422 321.057 498.896 319.912 499.74 319.068C500.583 318.224 501.728 317.75 502.922 317.75H551.922C553.115 317.75 554.26 318.224 555.104 319.068C555.947 319.912 556.422 321.057 556.422 322.25C556.422 323.443 555.947 324.588 555.104 325.432C554.26 326.276 553.115 326.75 551.922 326.75V326.75Z" fill="#00BFA6"/>
<path d="M541.922 308.25H512.922C511.728 308.25 510.583 307.776 509.74 306.932C508.896 306.088 508.422 304.943 508.422 303.75C508.422 302.557 508.896 301.412 509.74 300.568C510.583 299.724 511.728 299.25 512.922 299.25H541.922C543.115 299.25 544.26 299.724 545.104 300.568C545.947 301.412 546.422 302.557 546.422 303.75C546.422 304.943 545.947 306.088 545.104 306.932C544.26 307.776 543.115 308.25 541.922 308.25Z" fill="#00BFA6"/>
<path d="M551.922 341.75H502.922C501.728 341.75 500.583 341.276 499.74 340.432C498.896 339.588 498.422 338.443 498.422 337.25C498.422 336.057 498.896 334.912 499.74 334.068C500.583 333.224 501.728 332.75 502.922 332.75H551.922C553.115 332.75 554.26 333.224 555.104 334.068C555.947 334.912 556.422 336.057 556.422 337.25C556.422 338.443 555.947 339.588 555.104 340.432C554.26 341.276 553.115 341.75 551.922 341.75V341.75Z" fill="#00BFA6"/>
<path d="M264.05 253.189C271.782 253.189 278.05 246.921 278.05 239.189C278.05 231.457 271.782 225.189 264.05 225.189C256.318 225.189 250.05 231.457 250.05 239.189C250.05 246.921 256.318 253.189 264.05 253.189Z" fill="#E6E6E6"/>
<path d="M709.05 130.189C716.782 130.189 723.05 123.921 723.05 116.189C723.05 108.457 716.782 102.189 709.05 102.189C701.318 102.189 695.05 108.457 695.05 116.189C695.05 123.921 701.318 130.189 709.05 130.189Z" fill="#E6E6E6"/>
<path d="M556.05 508.189C563.782 508.189 570.05 501.921 570.05 494.189C570.05 486.457 563.782 480.189 556.05 480.189C548.318 480.189 542.05 486.457 542.05 494.189C542.05 501.921 548.318 508.189 556.05 508.189Z" fill="#E6E6E6"/>
</g>
<defs>
<clipPath id="clip0">
<rect width="854.236" height="649.461" fill="white"/>
</clipPath>
</defs>
</svg>
