<svg width="438" height="513" viewBox="0 0 438 513" fill="none" xmlns="http://www.w3.org/2000/svg">
<g clip-path="url(#clip0)">
<path d="M300.282 3.659C299.828 2.58142 299.068 1.66056 298.096 1.01025C297.124 0.359947 295.983 0.00871831 294.814 0H185.653C184.084 0.000794921 182.58 0.624452 181.47 1.73393C180.361 2.84341 179.737 4.34797 179.736 5.91701V144.012C179.737 145.581 180.361 147.086 181.47 148.195C182.58 149.305 184.084 149.928 185.653 149.929H294.814C296.383 149.927 297.887 149.303 298.996 148.194C300.105 147.084 300.729 145.581 300.731 144.012V5.91901C300.734 5.14325 300.581 4.3748 300.282 3.659ZM299.417 144.011C299.415 145.23 298.929 146.399 298.067 147.261C297.205 148.123 296.036 148.609 294.817 148.611H185.653C184.433 148.611 183.263 148.126 182.4 147.264C181.538 146.401 181.053 145.231 181.053 144.011V5.91901C181.055 4.69974 181.541 3.53108 182.403 2.66893C183.265 1.80678 184.434 1.32138 185.653 1.319H294.814C295.734 1.32278 296.632 1.6007 297.393 2.11726C298.154 2.63382 298.744 3.36556 299.087 4.21899C299.154 4.38878 299.212 4.56204 299.26 4.73801C299.365 5.12533 299.418 5.52477 299.418 5.92599L299.417 144.011Z" fill="#CCCCCC"/>
<path d="M277.499 32.606H244.619C243.921 32.606 243.252 32.3289 242.759 31.8356C242.266 31.3423 241.989 30.6732 241.989 29.9755C241.989 29.2779 242.266 28.6088 242.759 28.1155C243.252 27.6222 243.921 27.345 244.619 27.345H277.498C278.187 27.3584 278.843 27.6415 279.325 28.1333C279.808 28.6252 280.078 29.2866 280.078 29.9755C280.078 30.6644 279.808 31.3258 279.325 31.8177C278.843 32.3095 278.187 32.5926 277.498 32.606H277.499Z" fill="#CCCCCC"/>
<path d="M277.499 46.416H244.619C243.921 46.416 243.252 46.1389 242.759 45.6456C242.266 45.1523 241.989 44.4832 241.989 43.7855C241.989 43.0879 242.266 42.4188 242.759 41.9255C243.252 41.4322 243.921 41.155 244.619 41.155H277.498C278.187 41.1684 278.843 41.4515 279.325 41.9433C279.808 42.4352 280.078 43.0966 280.078 43.7855C280.078 44.4744 279.808 45.1358 279.325 45.6277C278.843 46.1196 278.187 46.4026 277.498 46.416H277.499Z" fill="#CCCCCC"/>
<path d="M227.753 54.279H203.72C202.936 54.2782 202.183 53.9662 201.629 53.4115C201.074 52.8567 200.762 52.1046 200.761 51.32V22.965C200.762 22.1805 201.074 21.4283 201.629 20.8736C202.183 20.3188 202.936 20.0068 203.72 20.006H227.753C228.538 20.0071 229.29 20.3192 229.844 20.8739C230.399 21.4285 230.711 22.1806 230.712 22.965V51.32C230.711 52.1046 230.399 52.8567 229.845 53.4115C229.29 53.9662 228.538 54.2782 227.753 54.279V54.279Z" fill="#CCCCCC"/>
<path d="M277.27 74.692H202.963C202.265 74.692 201.596 74.4149 201.103 73.9216C200.61 73.4283 200.333 72.7592 200.333 72.0615C200.333 71.3639 200.61 70.6948 201.103 70.2015C201.596 69.7082 202.265 69.431 202.963 69.431H277.27C277.968 69.431 278.637 69.7082 279.13 70.2015C279.623 70.6948 279.901 71.3639 279.901 72.0615C279.901 72.7592 279.623 73.4283 279.13 73.9216C278.637 74.4149 277.968 74.692 277.27 74.692V74.692Z" fill="#CCCCCC"/>
<path d="M277.27 88.506H202.963C202.265 88.506 201.596 88.2289 201.103 87.7356C200.61 87.2423 200.333 86.5732 200.333 85.8755C200.333 85.1779 200.61 84.5088 201.103 84.0155C201.596 83.5222 202.265 83.245 202.963 83.245H277.27C277.968 83.245 278.637 83.5222 279.13 84.0155C279.623 84.5088 279.901 85.1779 279.901 85.8755C279.901 86.5732 279.623 87.2423 279.13 87.7356C278.637 88.2289 277.968 88.506 277.27 88.506Z" fill="#CCCCCC"/>
<path d="M277.27 102.311H202.963C202.265 102.311 201.596 102.034 201.103 101.541C200.61 101.047 200.333 100.378 200.333 99.6805C200.333 98.9829 200.61 98.3138 201.103 97.8205C201.596 97.3272 202.265 97.05 202.963 97.05H277.27C277.968 97.05 278.637 97.3272 279.13 97.8205C279.623 98.3138 279.901 98.9829 279.901 99.6805C279.901 100.378 279.623 101.047 279.13 101.541C278.637 102.034 277.968 102.311 277.27 102.311V102.311Z" fill="#CCCCCC"/>
<path d="M277.27 116.124H202.963C202.265 116.124 201.596 115.847 201.103 115.354C200.61 114.86 200.333 114.191 200.333 113.494C200.333 112.796 200.61 112.127 201.103 111.633C201.596 111.14 202.265 110.863 202.963 110.863H277.27C277.968 110.863 278.637 111.14 279.13 111.633C279.623 112.127 279.901 112.796 279.901 113.494C279.901 114.191 279.623 114.86 279.13 115.354C278.637 115.847 277.968 116.124 277.27 116.124V116.124Z" fill="#CCCCCC"/>
<path d="M277.27 129.93H202.963C202.265 129.93 201.596 129.653 201.103 129.16C200.61 128.666 200.333 127.997 200.333 127.3C200.333 126.602 200.61 125.933 201.103 125.439C201.596 124.946 202.265 124.669 202.963 124.669H277.27C277.968 124.669 278.637 124.946 279.13 125.439C279.623 125.933 279.901 126.602 279.901 127.3C279.901 127.997 279.623 128.666 279.13 129.16C278.637 129.653 277.968 129.93 277.27 129.93Z" fill="#CCCCCC"/>
<path d="M366.21 85.1975C365.633 83.8278 364.667 82.6572 363.432 81.8307C362.197 81.0043 360.746 80.5581 359.26 80.5475H220.535C218.541 80.5486 216.629 81.3412 215.219 82.7513C213.809 84.1613 213.016 86.0734 213.015 88.0675V263.568C213.016 265.562 213.809 267.474 215.219 268.884C216.629 270.294 218.541 271.086 220.535 271.088H359.265C361.259 271.085 363.17 270.292 364.58 268.882C365.989 267.472 366.783 265.561 366.785 263.568V88.0675C366.788 87.0824 366.595 86.1066 366.215 85.1975H366.21Z" fill="#E6E6E6"/>
<path d="M354.914 261.234H225.27C223.402 261.232 221.939 259.188 221.939 256.581V93.7816C221.941 91.1722 223.405 89.1287 225.27 89.1287H354.914C356.783 89.1312 358.246 91.1746 358.246 93.7816V256.581C358.244 259.19 356.781 261.234 354.914 261.234Z" fill="white"/>
<path d="M366.21 85.1975C365.633 83.8278 364.667 82.6572 363.432 81.8307C362.197 81.0043 360.746 80.5581 359.26 80.5475H220.535C218.541 80.5486 216.629 81.3412 215.219 82.7513C213.809 84.1613 213.016 86.0734 213.015 88.0675V263.568C213.016 265.562 213.809 267.474 215.219 268.884C216.629 270.294 218.541 271.086 220.535 271.088H359.265C361.259 271.085 363.17 270.292 364.58 268.882C365.989 267.472 366.783 265.561 366.785 263.568V88.0675C366.788 87.0824 366.595 86.1066 366.215 85.1975H366.21ZM365.11 263.568C365.108 265.118 364.491 266.605 363.395 267.702C362.298 268.799 360.811 269.416 359.26 269.418H220.535C218.984 269.417 217.497 268.801 216.4 267.705C215.303 266.608 214.686 265.121 214.685 263.57V88.0685C214.687 86.5177 215.304 85.0309 216.401 83.9343C217.498 82.8377 218.984 82.2207 220.535 82.2185H359.265C360.433 82.223 361.574 82.5754 362.541 83.2308C363.508 83.8863 364.258 84.815 364.695 85.8985C364.78 86.1144 364.854 86.3348 364.915 86.5585C365.048 87.0509 365.115 87.5586 365.115 88.0685L365.11 263.568Z" fill="#00BFA6"/>
<path d="M337.26 121.983H295.474C294.588 121.983 293.737 121.63 293.11 121.003C292.483 120.376 292.131 119.526 292.131 118.64C292.131 117.753 292.483 116.903 293.11 116.276C293.737 115.649 294.588 115.297 295.474 115.297H337.26C338.147 115.297 338.997 115.649 339.624 116.276C340.251 116.903 340.603 117.753 340.603 118.64C340.603 119.526 340.251 120.376 339.624 121.003C338.997 121.63 338.147 121.983 337.26 121.983V121.983Z" fill="#00BFA6"/>
<path d="M337.26 139.533H295.474C294.588 139.533 293.737 139.18 293.11 138.553C292.483 137.926 292.131 137.076 292.131 136.19C292.131 135.303 292.483 134.453 293.11 133.826C293.737 133.199 294.588 132.847 295.474 132.847H337.26C338.147 132.847 338.997 133.199 339.624 133.826C340.251 134.453 340.603 135.303 340.603 136.19C340.603 137.076 340.251 137.926 339.624 138.553C338.997 139.18 338.147 139.533 337.26 139.533V139.533Z" fill="#00BFA6"/>
<path d="M274.034 149.526H243.497C242.5 149.524 241.544 149.128 240.839 148.423C240.134 147.718 239.737 146.762 239.736 145.765V109.729C239.737 108.731 240.134 107.775 240.839 107.07C241.544 106.365 242.5 105.969 243.497 105.968H274.034C275.031 105.969 275.987 106.365 276.692 107.07C277.397 107.775 277.794 108.731 277.795 109.729V145.765C277.794 146.762 277.397 147.718 276.692 148.423C275.987 149.128 275.031 149.524 274.034 149.526Z" fill="#00BFA6"/>
<path d="M336.97 175.469H242.534C241.647 175.469 240.797 175.116 240.17 174.489C239.543 173.862 239.191 173.012 239.191 172.126C239.191 171.239 239.543 170.389 240.17 169.762C240.797 169.135 241.647 168.783 242.534 168.783H336.97C337.857 168.783 338.707 169.135 339.334 169.762C339.961 170.389 340.313 171.239 340.313 172.126C340.313 173.012 339.961 173.862 339.334 174.489C338.707 175.116 337.857 175.469 336.97 175.469V175.469Z" fill="#E6E6E6"/>
<path d="M336.97 193.019H242.534C241.648 193.021 240.796 192.671 240.168 192.046C239.539 191.421 239.184 190.571 239.182 189.685C239.179 188.798 239.529 187.947 240.154 187.318C240.78 186.69 241.629 186.335 242.516 186.333H336.97C337.857 186.333 338.707 186.685 339.334 187.312C339.961 187.939 340.313 188.789 340.313 189.676C340.313 190.562 339.961 191.412 339.334 192.039C338.707 192.666 337.857 193.019 336.97 193.019V193.019Z" fill="#E6E6E6"/>
<path d="M336.97 210.569H242.534C241.647 210.569 240.797 210.216 240.17 209.589C239.543 208.962 239.191 208.112 239.191 207.226C239.191 206.339 239.543 205.489 240.17 204.862C240.797 204.235 241.647 203.883 242.534 203.883H336.97C337.857 203.88 338.708 204.23 339.337 204.855C339.965 205.48 340.32 206.33 340.322 207.216C340.325 208.103 339.975 208.954 339.35 209.583C338.725 210.212 337.875 210.566 336.989 210.569H336.97Z" fill="#E6E6E6"/>
<path d="M336.97 228.119H242.534C242.095 228.12 241.66 228.034 241.254 227.868C240.848 227.701 240.479 227.456 240.168 227.146C239.856 226.836 239.609 226.469 239.44 226.063C239.271 225.658 239.183 225.224 239.182 224.785C239.181 224.346 239.266 223.911 239.433 223.505C239.6 223.099 239.845 222.73 240.154 222.418C240.464 222.107 240.832 221.86 241.237 221.691C241.642 221.521 242.077 221.434 242.516 221.433H336.97C337.857 221.433 338.707 221.785 339.334 222.412C339.961 223.039 340.313 223.889 340.313 224.776C340.313 225.662 339.961 226.512 339.334 227.139C338.707 227.766 337.857 228.119 336.97 228.119V228.119Z" fill="#E6E6E6"/>
<path d="M336.97 245.669H242.534C241.648 245.671 240.796 245.321 240.168 244.696C239.539 244.071 239.184 243.221 239.182 242.335C239.179 241.448 239.529 240.597 240.154 239.968C240.78 239.34 241.629 238.985 242.516 238.983H336.97C337.857 238.983 338.707 239.335 339.334 239.962C339.961 240.589 340.313 241.439 340.313 242.326C340.313 243.212 339.961 244.062 339.334 244.689C338.707 245.316 337.857 245.669 336.97 245.669V245.669Z" fill="#E6E6E6"/>
<path d="M383.551 121.629C413.375 121.629 437.551 97.4519 437.551 67.6285C437.551 37.8052 413.375 13.6285 383.551 13.6285C353.728 13.6285 329.551 37.8052 329.551 67.6285C329.551 97.4519 353.728 121.629 383.551 121.629Z" fill="#00BFA6"/>
<path d="M392.056 69.4195V39.6285H376.714V69.4195H369.551L376.967 82.2645L384.385 95.1115L391.803 82.2645L399.22 69.4175L392.056 69.4195Z" fill="white"/>
<path d="M403.625 512.629H22.6252C22.36 512.629 22.1057 512.523 21.9181 512.336C21.7306 512.148 21.6252 511.894 21.6252 511.629C21.6252 511.363 21.7306 511.109 21.9181 510.921C22.1057 510.734 22.36 510.629 22.6252 510.629H403.625C403.89 510.629 404.145 510.734 404.332 510.921C404.52 511.109 404.625 511.363 404.625 511.629C404.625 511.894 404.52 512.148 404.332 512.336C404.145 512.523 403.89 512.629 403.625 512.629Z" fill="#E6E6E6"/>
<path d="M371.074 503.736C361.474 510.651 349.035 510.998 337.011 510.149C335.332 510.031 333.665 509.892 332.011 509.742H331.978C331.899 509.734 331.819 509.727 331.743 509.722L330.723 509.622L330.803 509.774L331.053 510.246C330.963 510.088 330.873 509.933 330.783 509.775C330.757 509.728 330.727 509.68 330.701 509.633C327.586 504.212 324.501 498.593 323.709 492.403C322.894 485.978 325.184 478.703 330.838 475.546C331.58 475.132 332.365 474.803 333.179 474.565C333.517 474.465 333.86 474.378 334.207 474.305C336.328 473.833 338.536 473.936 340.604 474.601C342.673 475.266 344.526 476.47 345.975 478.09C347.423 479.709 348.414 481.685 348.846 483.814C349.277 485.943 349.134 488.149 348.43 490.205C353.224 485.289 352.33 477.315 350.676 470.65C349.022 463.985 347.013 456.569 350.383 450.583C351.337 448.977 352.621 447.592 354.149 446.518C355.676 445.443 357.414 444.705 359.248 444.351C359.361 444.327 359.475 444.302 359.588 444.281C363.993 443.388 368.572 444.191 372.411 446.528C379.48 450.983 383.111 459.428 384.289 467.702C386.189 481.015 381.987 495.875 371.074 503.736Z" fill="#F2F2F2"/>
</g>
<defs>
<clipPath id="clip0">
<rect width="437.551" height="512.629" fill="white"/>
</clipPath>
</defs>
</svg>
